<svg xmlns="http://www.w3.org/2000/svg" width="148" height="46" viewBox="0 0 148 46" role="img"><rect x="7.5" y="0.5" width="133" height="45" rx="7" fill="#21262d" stroke="#30363d"/><g transform="translate(23,14) scale(0.75)"><path d="M13 3 L13 6 M13 18 L13 21" stroke="#ffffff" stroke-width="2" stroke-linecap="round" fill="none"/><path d="M7 5 L7 19" stroke="#ffffff" stroke-width="2" stroke-linecap="round" fill="none"/><path d="M17 5 L17 19" stroke="#ffffff" stroke-width="2" stroke-linecap="round" fill="none"/><path d="M4 8 C4 5 5.5 4 7 4 M20 8 C20 5 18.5 4 17 4" stroke="#ffffff" stroke-width="2" stroke-linecap="round" fill="none"/><path d="M4 16 C4 19 5.5 20 7 20 M20 16 C20 19 18.5 20 17 20" stroke="#ffffff" stroke-width="2" stroke-linecap="round" fill="none"/></g><text x="49" y="23" fill="#ffffff" font-family="Inter,system-ui,-apple-system,sans-serif" font-size="13" font-weight="600" letter-spacing="2" dominant-baseline="central">LEETCODE</text></svg>